<svg xmlns="http://www.w3.org/2000/svg" version="1.1" xmlns:xlink="http://www.w3.org/1999/xlink" width="400" height="400"><svg xmlns="http://www.w3.org/2000/svg" version="1.1" xmlns:xlink="http://www.w3.org/1999/xlink" width="400" height="400"><svg width="400" height="400" viewBox="0 0 400 400" fill="none" xmlns="http://www.w3.org/2000/svg">
<path d="M200 30C106.262 30 30 106.262 30 200C30 293.738 106.262 370 200 370C293.738 370 370 293.738 370 200C370 106.262 293.738 30 200 30ZM358.95 200C358.95 238.242 345.367 273.381 322.783 300.836H301.295C293.653 288.885 290.738 264.422 289.871 254.961C289.667 252.777 287.831 251.111 285.638 251.111H282.433C280.24 251.111 278.404 252.777 278.2 254.961C277.333 264.422 274.418 288.885 266.776 300.836H235.292C218.054 286.054 205.533 264.94 205.533 238.114C205.533 207.854 217.383 198.7 228.484 192.495C231.152 191.007 234.476 189.417 238.004 187.726C251.374 181.334 268.017 173.378 274.579 159.311C278.973 149.901 279.79 146.17 279.926 135.672C286.122 133.411 290.576 127.478 290.576 120.508C290.576 111.6 283.334 104.358 274.426 104.358C265.518 104.358 258.276 111.6 258.276 120.508C258.276 127.461 262.705 133.386 268.884 135.655C268.791 144.521 268.204 146.841 264.566 154.636C259.678 165.116 245.016 172.12 233.235 177.756C229.546 179.515 226.07 181.181 223.094 182.847C216.881 186.315 210.617 190.727 205.533 197.501V41.322C229.223 43.5915 249.394 60.2855 255.973 83.176C242.237 89.993 232.776 104.163 232.776 120.5C232.776 134.967 240.392 148.405 252.53 155.927C254.706 157.279 257.571 156.463 258.659 154.143L259.772 151.78C260.682 149.833 259.959 147.555 258.14 146.408C249.342 140.849 243.835 131.048 243.835 120.5C243.835 103.627 257.562 89.8995 274.435 89.8995C291.307 89.8995 305.035 103.627 305.035 120.5C305.035 133.513 296.645 145.107 284.617 149.365C282.577 150.088 281.354 152.179 281.821 154.296L282.365 156.803C282.909 159.302 285.51 160.747 287.924 159.914C304.491 154.219 316.085 138.35 316.085 120.5C316.085 97.5325 297.402 78.8495 274.435 78.8495C271.706 78.8495 269.046 79.1215 266.462 79.623C262.79 67.2045 255.752 56.3585 246.495 47.986C311.537 67.91 358.967 128.515 358.967 200H358.95ZM169.162 311.486C175.35 306.522 180.799 301.048 185.482 295.166C181.275 306.114 175.596 315.302 168.456 322.681C153.055 338.601 135.511 341.151 127.419 341.389C123.781 339.51 120.228 337.496 116.759 335.363C135.128 332.175 153.879 323.743 169.162 311.486ZM114.541 143.45C114.107 141.486 112.399 140.083 110.384 140.083H107.8C105.106 140.083 103.092 142.549 103.627 145.184C105.387 153.819 111.124 163.127 116.904 169.527C114.218 170.284 111.43 170.675 108.608 170.675C91.7355 170.675 78.008 156.948 78.008 140.075C78.008 123.202 91.7355 109.475 108.608 109.475C120.797 109.475 131.822 116.7 136.684 127.878L136.888 127.793C147.054 150.207 168.814 166.272 194.467 168.304V212.249C187.871 202.686 179.235 193.506 171.16 188.491C165.388 184.904 159.872 182.303 154.032 179.549C146.756 176.115 139.225 172.562 129.969 166.561C125.302 163.535 116.505 152.358 114.533 143.45H114.541ZM194.475 41.322V157.237C164.954 154.44 141.775 129.518 141.775 99.2835C141.775 69.049 164.954 44.1185 194.475 41.3305V41.322ZM176.404 330.356C183.85 322.655 189.877 313.314 194.475 302.383V358.84C177.398 358.253 160.994 354.972 145.685 349.388C155.137 346.48 166.196 340.905 176.404 330.356ZM205.525 302.383C210.124 313.314 216.15 322.663 223.596 330.356C233.805 340.905 244.863 346.48 254.315 349.388C239.007 354.972 222.602 358.253 205.525 358.84V302.383ZM231.544 322.672C224.412 315.294 218.734 306.097 214.518 295.158C219.193 301.048 224.642 306.522 230.838 311.478C246.13 323.734 264.88 332.167 283.24 335.354C279.773 337.496 276.22 339.51 272.582 341.38C264.481 341.134 246.946 338.593 231.544 322.672ZM269.317 120.5C269.317 117.686 271.604 115.4 274.417 115.4C277.231 115.4 279.518 117.686 279.518 120.5C279.518 123.313 277.231 125.6 274.417 125.6C271.604 125.6 269.317 123.313 269.317 120.5ZM153.454 48.0115C139.497 60.6935 130.725 78.977 130.725 99.275C130.725 101.188 130.827 103.075 130.98 104.945C124.427 100.78 116.717 98.4335 108.617 98.4335C85.6495 98.4335 66.9665 117.117 66.9665 140.083C66.9665 163.051 85.6495 181.734 108.617 181.734C114.915 181.734 121.103 180.297 126.722 177.577C135.392 182.966 142.761 186.443 149.332 189.545C154.874 192.163 160.109 194.628 165.337 197.883C176.965 205.117 189.128 222.364 193.115 232.589H136.046C133.53 222.899 124.707 215.734 114.243 215.734C101.825 215.734 91.7185 225.84 91.7185 238.258C91.7185 250.677 101.825 260.784 114.243 260.784C124.809 260.784 133.691 253.473 136.114 243.639H194.296C192.707 267.855 180.765 287.091 164.725 300.836H132.425V297.01C132.425 294.665 130.521 292.76 128.175 292.76H125.625C123.279 292.76 121.375 294.665 121.375 297.01V300.836H77.226C54.6415 273.381 41.0585 238.25 41.0585 200C41.0585 128.541 88.4545 67.9525 153.463 48.0115H153.454ZM125.719 238.25C125.719 244.574 120.568 249.725 114.243 249.725C107.92 249.725 102.769 244.574 102.769 238.25C102.769 231.926 107.92 226.775 114.243 226.775C120.568 226.775 125.719 231.926 125.719 238.25ZM87.2135 311.885H149.06C133.947 320.598 117.287 325.307 102.828 325.698C97.3285 321.431 92.1095 316.824 87.2135 311.885ZM297.172 325.698C282.714 325.307 266.053 320.598 250.941 311.885H312.786C307.891 316.824 302.672 321.431 297.172 325.698ZM324.049 242.049C324.423 244.591 322.4 246.861 319.833 246.861H248.221C245.654 246.861 243.631 244.591 244.005 242.049C246.631 224.37 263.546 210.736 284.023 210.736C304.499 210.736 321.414 224.378 324.04 242.049H324.049ZM112.79 283.088C114.771 276.355 120.338 271.511 126.892 271.511C133.445 271.511 139.013 276.355 140.993 283.088C141.792 285.799 139.727 288.51 136.905 288.51H116.879C114.057 288.51 111.991 285.799 112.79 283.088Z" fill="url(#paint0_linear_1030_6)"></path>
<defs>
<linearGradient id="paint0_linear_1030_6" x1="30" y1="30" x2="409.016" y2="318.796" gradientUnits="userSpaceOnUse">
<stop stop-color="#00807E"></stop>
<stop offset="0.25" stop-color="#00818E"></stop>
<stop offset="0.5" stop-color="#00819D"></stop>
<stop offset="0.75" stop-color="#007FAA"></stop>
<stop offset="1" stop-color="#277CB3"></stop>
</linearGradient>
</defs>
</svg></svg><style>@media (prefers-color-scheme: light) { :root { filter: none; } }
@media (prefers-color-scheme: dark) { :root { filter: contrast(0.3846153846153846) brightness(4.5); } }
</style></svg>